<?xml version="1.0" encoding="UTF-8"?>
<svg id="Ebene_2" xmlns="http://www.w3.org/2000/svg" viewBox="0 0 128.07 128.07">
  <defs>
    <style>
      .cls-1 {
        fill: #1d4368;
      }

      .cls-2 {
        fill: #fff;
      }

      .cls-3 {
        fill: #ec641c;
      }
    </style>
  </defs>
  <g id="Ebene_1-2" data-name="Ebene_1">
    <rect class="cls-2" width="128.07" height="128.07"/>
    <g>
      <path class="cls-1" d="M64.31,71.28v1.89h8.29v-4.71c0-7.17-5.81-12.99-12.99-12.99h-3.91v8.29h1.1c4.15,0,7.51,3.36,7.51,7.51Z"/>
      <path class="cls-3" d="M84.91,27.46h-24.66c-9.12,0-16.5,7.39-16.5,16.5v24.66c0,9.12,7.39,16.5,16.5,16.5h24.66c9.12,0,16.5-7.39,16.5-16.5v-24.66c0-9.12-7.39-16.5-16.5-16.5ZM90.88,65.05c0,5.27-4.27,9.54-9.54,9.54h-17.5c-5.27,0-9.54-4.27-9.54-9.54v-17.5c0-5.27,4.27-9.54,9.54-9.54h17.5c5.27,0,9.54,4.27,9.54,9.54v17.5Z"/>
      <path class="cls-1" d="M64.16,86.55c-.69,3.43-3.72,6.01-7.36,6.01h-13.77c-4.15,0-7.51-3.36-7.51-7.51v-13.77c0-3.91,2.99-7.12,6.81-7.47v-8.33h-2.12c-7.17,0-12.99,5.81-12.99,12.99v19.4c0,7.17,5.81,12.99,12.99,12.99h19.4c7.17,0,12.99-5.81,12.99-12.99v-1.32h-8.44Z"/>
    </g>
  </g>
</svg>